<?xml version="1.0" encoding="UTF-8" standalone="no"?>
<!-- Created with Inkscape (http://www.inkscape.org/) -->

<svg
   width="250.00002cm"
   height="150cm"
   viewBox="0 0 2500.0002 1500"
   version="1.1"
   id="svg1"
   xml:space="preserve"
   xmlns:inkscape="http://www.inkscape.org/namespaces/inkscape"
   xmlns:sodipodi="http://sodipodi.sourceforge.net/DTD/sodipodi-0.dtd"
   xmlns="http://www.w3.org/2000/svg"
   xmlns:svg="http://www.w3.org/2000/svg"><sodipodi:namedview
     id="namedview1"
     pagecolor="#ffffff"
     bordercolor="#000000"
     borderopacity="0.25"
     inkscape:showpageshadow="2"
     inkscape:pageopacity="0.0"
     inkscape:pagecheckerboard="0"
     inkscape:deskcolor="#d1d1d1"
     inkscape:document-units="mm" /><defs
     id="defs1" /><g
     inkscape:label="Layer 1"
     inkscape:groupmode="layer"
     id="layer1"><path
       style="fill:#000000"
       d="m 1047.7426,1042.8424 c -17.9989,-1.1029 -37.0204,-3.2147 -42.2701,-4.693 -43.35478,-12.2081 -76.96912,-46.92546 -89.00871,-91.92936 -2.88264,-10.7753 -3.65459,-54.4479 -3.68017,-208.2032 -0.0355,-213.23568 -0.45459,-207.12468 16.4877,-240.40426 8.32206,-16.34694 34.74185,-41.79394 53.13254,-51.17617 18.51584,-9.44607 30.67694,-11.23154 95.53314,-14.02598 70.0544,-3.01842 80.8327,-1.69195 110.0794,13.54734 28.9662,15.09312 47.4925,37.48658 58.9975,71.31254 l 6.6245,19.47694 v 196.73599 c 0,130.1441 -1.0046,202.1703 -2.9679,212.7906 -8.5312,46.15 -43.6448,83.05616 -91.117,95.76896 -14.6422,3.9211 -56.0379,4.2171 -111.8109,0.7996 z m 115.1894,-87.79406 12.9841,-12.9885 0.7503,-200.5954 c 0.7434,-198.76288 0.6985,-200.68761 -4.9177,-210.68035 -3.1174,-5.54668 -9.667,-12.82498 -14.5545,-16.174 -8.5351,-5.84832 -11.2663,-6.08913 -69.0627,-6.08913 -68.7211,0 -73.9013,1.14572 -88.49575,19.57275 l -9.16224,11.56828 v 197.82485 197.8248 l 7.60362,11.1999 c 4.18197,6.1599 10.93157,12.7815 14.99907,14.7147 11.5059,5.4685 38.6928,7.6507 89.8597,7.2129 l 47.0119,-0.4023 z m 240.6967,-177.9939 c 0,-212.5585 -0.7123,-268.93468 -3.4089,-269.80551 -1.8748,-0.60547 -27.6459,-1.92822 -57.269,-2.93945 l -53.8602,-1.8386 v -36.96003 -36.96003 l 97.4938,1.79695 c 96.0243,1.76987 193.8296,6.0578 203.1687,8.90722 4.2264,1.28952 4.7724,5.52082 4.7724,36.98712 v 35.53102 l -56.1968,-1.99748 c -46.5325,-1.65398 -56.6085,-1.34739 -58.5908,1.78278 -1.3306,2.10112 -2.4126,120.80561 -2.4358,267.23841 l -0.042,263.45816 -16.7626,1.752 c -9.2194,0.9636 -25.7866,1.7521 -36.8158,1.7521 h -20.0532 z M 789.6042,1025.1917 c -77.48871,-7.9648 -161.72268,-18.6288 -209.55876,-26.53006 l -36.81581,-6.0809 -0.69582,-254.2464 -0.69581,-254.24629 6.15001,-1.37763 c 48.62386,-10.89199 322.27074,-42.62734 329.42735,-38.20432 4.10907,2.53955 3.35619,69.37501 -0.79814,70.85307 -1.87488,0.66705 -26.72555,3.09634 -55.22371,5.39841 -82.30767,6.64879 -192.82076,18.10952 -199.64515,20.70415 l -6.25066,2.3765 v 77.78971 77.7898 h 32.28961 c 17.75929,0 52.7343,0.8063 77.72226,1.7918 l 45.43265,1.7918 v 36.3876 36.3875 l -57.95081,0.019 c -31.87294,0.011 -66.04609,0.7842 -75.94033,1.7189 l -17.98952,1.6994 -1.90124,75.066 c -1.27805,50.4606 -0.97844,75.9888 0.91406,77.8813 4.07528,4.0753 129.65431,17.4466 236.72606,25.206 l 25.22565,1.828 v 36.4641 36.46406 l -14.31726,-0.2905 c -7.87449,-0.1597 -42.12157,-3.1483 -76.10463,-6.6414 z m 926.2771,-1.0409 c -16.8377,-2.9972 -45.2493,-18.6342 -56.631,-31.16826 -5.6487,-6.2207 -14.239,-18.6734 -19.0897,-27.6728 l -8.8193,-16.3626 -0.7373,-252.0646 c -0.4055,-138.6355 0.2081,-252.93986 1.3636,-254.0096 1.1554,-1.06975 17.4407,-0.54249 36.1895,1.17167 l 34.0887,3.11667 1.3636,242.71166 c 1.0264,182.7036 2.1789,244.1332 4.6616,248.4614 7.3412,12.7982 16.139,15.5928 43.4423,13.7993 28.8609,-1.8958 41.487,-6.1842 48.1506,-16.354 4.2877,-6.5439 4.648,-25.1523 4.648,-240.0227 0,-183.06428 0.7298,-233.51509 3.4089,-235.66756 3.8691,-3.10854 61.3355,3.00119 65.2741,6.93984 1.2873,1.28724 2.0069,107.79102 1.5992,236.67502 l -0.7412,234.3345 -6.1908,15.3036 c -16.0379,39.6459 -51.0952,64.67726 -96.7571,69.08596 -33.6285,3.2469 -44.717,3.5927 -55.2237,1.7225 z m 207.5511,-26.33896 c -2.663,-6.9397 -1.8346,-517.51022 0.8465,-521.74489 2.0357,-3.21515 12.0184,-2.27203 63.0904,5.96048 34.3187,5.53198 62.1786,11.33687 64.1405,13.36434 2.1861,2.25923 12.6841,75.67027 28.3963,198.57177 13.7104,107.2431 25.7715,196.8282 26.8025,199.0781 1.0311,2.2499 2.4882,-83.6537 3.2382,-190.8968 l 1.3635,-194.98742 9.5449,0.7708 c 5.2496,0.42394 18.1352,2.87833 28.6345,5.45419 l 19.0897,4.68339 0.6978,219.91534 0.6978,219.9154 -18.4239,4.3769 c -45.6423,10.843 -97.3661,20.6208 -99.1184,18.7371 -1.0568,-1.1359 -13.802,-94.1049 -28.3228,-206.5976 -14.5208,-112.4928 -27.4494,-206.9867 -28.7303,-209.9865 -1.3152,-3.0803 -2.4092,89.0215 -2.5134,211.6138 l -0.1846,217.0681 -27.1477,4.5086 c -33.7331,5.60226 -40.0153,5.63136 -42.1015,0.1949 z M 475.05221,981.19174 c -119.90735,-25.1476 -205.21962,-47.6013 -228.60333,-60.1669 -20.13254,-10.8186 -39.0181,-31.4603 -50.55329,-55.2542 l -9.91564,-20.4532 -0.88626,-98.1755 c -0.94371,-104.5409 0.14173,-117.2998 11.97383,-140.7468 9.37532,-18.5786 31.4685,-41.2781 49.4468,-50.8038 17.39138,-9.21483 42.458,-17.23121 100.31301,-32.08042 53.31863,-13.6849 155.07322,-34.13943 157.5845,-31.67736 1.14875,1.12625 1.76235,36.94189 1.36354,79.59028 l -0.72509,77.5426 h -35.45226 -35.45226 l -0.75769,-37.3379 c -0.6714,-33.0856 -1.31335,-37.5143 -5.63669,-38.8864 -5.57741,-1.7702 -53.49376,7.6024 -105.32138,20.6013 -31.26714,7.842 -36.65639,10.0655 -46.58982,19.2218 -6.60389,6.0873 -12.54309,14.7275 -14.41247,20.9669 -2.16006,7.2097 -3.1797,41.3666 -3.1797,106.5173 v 95.9045 l 6.80023,13.4196 c 9.14052,18.0379 21.64785,24.743 65.46784,35.0968 64.60305,15.2644 96.41428,20.9682 99.53576,17.8467 1.96864,-1.9686 2.29399,-21.9919 1.02428,-63.0361 l -1.8608,-60.1511 -12.23266,-1.6767 c -6.72797,-0.9222 -19.38137,-1.6767 -28.11867,-1.6767 -13.49131,0 -16.36163,-0.8887 -19.04117,-5.8955 -3.69544,-6.9049 -2.17327,-63.7855 1.80651,-67.506 1.38617,-1.2958 32.27974,-1.7056 68.6524,-0.9105 l 66.1321,1.4456 v 141.4264 141.4265 l -6.13597,-0.2838 c -3.37478,-0.1561 -14.72633,-2.0854 -25.22565,-4.2874 z M 2202.6681,737.59714 c 0,-171.784 0.6529,-209.9865 3.5887,-209.9865 5.5057,0 81.2153,22.6347 116.4035,34.8008 l 31.3616,10.8431 0.7711,30.3565 c 0.4241,16.696 -0.2355,30.3564 -1.4657,30.3564 -1.2303,0 -20.496,-6.117 -42.8126,-13.5932 -30.9877,-10.3811 -41.4502,-12.8676 -44.2759,-10.5224 -2.9074,2.4129 -3.5406,13.0664 -2.9556,49.7272 l 0.7446,46.6565 29.998,1.3635 29.9981,1.3635 0.899,12.272 c 0.4945,6.7496 0.09,19.9419 -0.8988,29.3163 l -1.7979,17.0443 h -28.4174 -28.4175 v 32.3252 c 0,17.7788 -0.7744,39.7345 -1.721,48.7905 -1.534,14.677 -1.1526,16.6458 3.5114,18.1261 3.0068,0.9543 22.2149,-4.0287 45.1595,-11.7153 21.9599,-7.3567 40.6285,-12.6745 41.4857,-11.8173 0.8572,0.8572 1.5586,14.6307 1.5586,30.6077 v 29.0491 l -51.1331,16.7151 c -54.6883,17.8773 -89.5454,27.9073 -96.9859,27.9073 -4.2734,0 -4.5984,-14.8434 -4.5984,-209.9864 z"
       id="path1" /></g></svg>
